

<svg xmlns="http://www.w3.org/2000/svg" viewBox="0 0 1440 320"><path fill="#d759fd" fill-opacity="1" d="M0,224L30,234.7C60,245,120,267,180,277.3C240,288,300,288,360,272C420,256,480,224,540,218.7C600,213,660,235,720,218.7C780,203,840,149,900,122.7C960,96,1020,96,1080,122.7C1140,149,1200,203,1260,218.7C1320,235,1380,213,1410,202.7L1440,192L1440,320L1410,320C1380,320,1320,320,1260,320C1200,320,1140,320,1080,320C1020,320,960,320,900,320C840,320,780,320,720,320C660,320,600,320,540,320C480,320,420,320,360,320C300,320,240,320,180,320C120,320,60,320,30,320L0,320Z"></path></svg>