

<svg xmlns="http://www.w3.org/2000/svg" viewBox="0 0 1440 320"><path fill="#6954f4" fill-opacity="1" d="M0,256L17.1,234.7C34.3,213,69,171,103,154.7C137.1,139,171,149,206,176C240,203,274,245,309,266.7C342.9,288,377,288,411,293.3C445.7,299,480,309,514,298.7C548.6,288,583,256,617,234.7C651.4,213,686,203,720,208C754.3,213,789,235,823,234.7C857.1,235,891,213,926,186.7C960,160,994,128,1029,106.7C1062.9,85,1097,75,1131,85.3C1165.7,96,1200,128,1234,154.7C1268.6,181,1303,203,1337,197.3C1371.4,192,1406,160,1423,144L1440,128L1440,320L1422.9,320C1405.7,320,1371,320,1337,320C1302.9,320,1269,320,1234,320C1200,320,1166,320,1131,320C1097.1,320,1063,320,1029,320C994.3,320,960,320,926,320C891.4,320,857,320,823,320C788.6,320,754,320,720,320C685.7,320,651,320,617,320C582.9,320,549,320,514,320C480,320,446,320,411,320C377.1,320,343,320,309,320C274.3,320,240,320,206,320C171.4,320,137,320,103,320C68.6,320,34,320,17,320L0,320Z"></path></svg>